<svg xmlns="http://www.w3.org/2000/svg" width="120" height="120" fill="none"><path fill="#F5AC37" d="M60 16.656c23.94 0 43.344 19.407 43.344 43.344 0 23.94-19.403 43.344-43.344 43.344-23.936 0-43.344-19.405-43.344-43.344 0-23.937 19.408-43.344 43.344-43.344Z"/><path fill="#FEFEFD" d="M61.598 63.06h16.47c.35 0 .517 0 .542-.46.135-1.676.135-3.36 0-5.038 0-.326-.162-.46-.515-.46H45.317c-.406 0-.515.134-.515.514v4.822c0 .622 0 .622.65.622h16.146ZM76.77 51.466a.527.527 0 0 0 0-.378c-.275-.599-.601-1.17-.98-1.707a13.817 13.817 0 0 0-2.005-2.52 6.647 6.647 0 0 0-1.246-1.219 19.473 19.473 0 0 0-8.128-4.117 20.211 20.211 0 0 0-4.605-.488H45.26c-.405 0-.46.162-.46.515v9.616c0 .406 0 .515.515.515h31.26s.272-.055.326-.217h-.132.002Zm0 17.23c-.46-.052-.925-.052-1.385 0H45.344c-.406 0-.542 0-.542.541v9.402c0 .433 0 .542.542.542h13.87c.663.05 1.327.004 1.976-.135a20.648 20.648 0 0 0 5.88-1.3c.687-.238 1.35-.549 1.977-.921h.189a17.6 17.6 0 0 0 7.558-7.609s.19-.41-.023-.517v-.004Zm-37.413 15.36v-14.98c0-.353 0-.406-.433-.406h-5.879c-.325 0-.46 0-.46-.433V63.09h6.284c.352 0 .488 0 .488-.46v-5.094c0-.325 0-.405-.433-.405h-5.879c-.325 0-.46 0-.46-.433V51.93c0-.299 0-.379.433-.379h5.824c.406 0 .515 0 .515-.515V36.436c0-.433 0-.542.542-.542h20.317c1.474.058 2.94.22 4.388.487a26.482 26.482 0 0 1 8.48 3.142 23.898 23.898 0 0 1 4.766 3.685 26.114 26.114 0 0 1 2.899 3.603 21.727 21.727 0 0 1 2.116 4.144.706.706 0 0 0 .81.57h4.848c.623 0 .623 0 .65.597v4.443c0 .433-.162.542-.597.542h-3.74c-.377 0-.487 0-.46.488a27.68 27.68 0 0 1 0 4.956c0 .46 0 .515.517.515h4.278c.19.244 0 .488 0 .733.027.315.027.632 0 .946v3.28c0 .46-.135.596-.542.596h-5.12a.678.678 0 0 0-.787.515 21.66 21.66 0 0 1-5.69 8.29c-.92.829-1.887 1.609-2.898 2.328-1.084.625-2.14 1.274-3.251 1.79a29.29 29.29 0 0 1-6.394 2.03 33.33 33.33 0 0 1-6.339.514h-18.8v-.027l.007-.006Z"/></svg>