<svg viewBox="0 0 224 28" fill="none" xmlns="http://www.w3.org/2000/svg">
<g clip-path="url(#clip0_7665_244036)">
<path d="M51.0761 10.3451L47.5432 6.69651H42.7172L40.1076 9.37518V11.5689L42.5324 12.8158H48.3052L52.1614 14.8479V19.2121L48.3974 23.0914H41.8626L37.7522 18.8657L39.1839 17.3649L42.7172 21.0135H47.5432L50.1525 18.3348V16.118L47.7971 14.8942H42.0705L38.0755 12.8621V8.49784L41.8626 4.61816H48.3974L52.5078 8.8443L51.0761 10.3451ZM65.088 6.69651H61.37V21.0135H65.088V23.0914H55.6203V21.0135H59.338V6.69651H55.6203V4.61816H65.088V6.69651ZM79.4177 23.0914H69.1189V4.61854H79.4177L83.2048 8.49747V19.2121L79.4177 23.0914ZM81.1727 9.37518L78.5866 6.69651H71.151V21.0135H78.5866L81.1727 18.3348V9.37518ZM87.5877 23.0914V4.61854H101.674V6.69651H89.6198V12.8158H96.5933V14.8942H89.6198V21.0131H101.674V23.0914H87.5877ZM117.532 10.3451L113.999 6.69651H109.173L106.563 9.37518V11.5689L108.988 12.8158H114.761L118.617 14.8479V19.2121L114.853 23.0914H108.319L104.208 18.8657L105.64 17.3649L109.173 21.0135H113.999L116.608 18.3348V16.118L114.253 14.8942H108.526L104.531 12.8621V8.49784L108.319 4.61816H114.853L118.964 8.8443L117.532 10.3451ZM134.707 23.0914V14.8942H124.685V23.0914H122.653V4.61854H124.685V12.8158H134.707V4.61816H136.739V23.0914H134.707ZM150.238 6.69651H146.52V21.0135H150.238V23.0914H140.771V21.0135H144.488V6.69651H140.771V4.61816H150.238V6.69651ZM156.301 6.69651V12.8158H163.275V14.8942H156.301V23.0914H154.269V4.61854H168.355V6.69651H156.301ZM184.181 6.69651H178.154V23.0914H176.122V6.69651H170.095V4.61816H184.181V6.69651ZM188.798 23.0914V19.7665H191.084V23.0914H188.798ZM208.469 23.0914V14.8942H198.448V23.0914H196.415V8.49784L200.203 4.61816H206.714L210.501 8.49784V23.0914H208.469ZM208.469 9.37518L205.883 6.69651H201.034L198.448 9.37518V12.8158H208.469V9.37518ZM224 6.69651H220.282V21.0135H224V23.0914H214.533V21.0135H218.25V6.69651H214.533V4.61816H224V6.69651Z" fill="#110B0B"/>
<path d="M22.8394 3.31296C20.3356 1.1725 17.1492 -0.00250489 13.8552 4.00949e-06C6.19435 4.00949e-06 5.51816e-06 6.19995 5.51816e-06 13.8667C-0.00293676 17.1627 1.17083 20.3514 3.30998 22.8588L22.8394 3.31296Z" fill="#110B0B"/>
<path d="M4.776 24.3261C7.21125 26.4321 10.3797 27.71 13.8555 27.71C21.5155 27.71 27.7102 21.5101 27.7102 13.8433C27.7102 10.3646 26.4334 7.19384 24.3293 4.75635L4.776 24.3265V24.3261Z" fill="#110B0B"/>
</g>
<defs>
<clipPath id="clip0_7665_244036">
<rect width="224" height="28" fill="white"/>
</clipPath>
</defs>
</svg>
