<svg width="20" height="20" viewBox="0 0 20 20" fill="none" xmlns="http://www.w3.org/2000/svg">
<path d="M10 0.015625C4.46875 0.015625 0.015625 4.46875 0.015625 10C0.015625 15.5312 4.46875 19.9844 10 19.9844C15.5312 19.9844 19.9844 15.5312 19.9844 10C19.9844 4.46875 15.5312 0.015625 10 0.015625ZM10.8906 15.7656V16.1406C10.8906 16.6094 10.4688 16.9844 10 16.9844C9.53125 16.9844 9.10938 16.6094 9.10938 16.1406V15.7188C8.5 15.5312 7.1875 15.1094 6.4375 13.6094C6.20312 13.1406 6.4375 12.625 6.85938 12.4375L6.95312 12.3906C7.375 12.2031 7.79688 12.3906 8.03125 12.7656C8.35938 13.375 8.96875 14.1719 10.1406 14.1719C11.0781 14.1719 12.1094 13.6562 12.1094 12.5312C12.1094 11.5938 11.4531 11.0781 9.85938 10.5156C8.73438 10.1406 6.48438 9.48438 6.48438 7.1875C6.48438 7.09375 6.53125 4.79688 9.10938 4.23438V3.85938C9.10938 3.39062 9.53125 3.01562 10 3.01562C10.4688 3.01562 10.8906 3.39062 10.8906 3.85938V4.23438C11.9688 4.42188 12.625 5.03125 13.0469 5.54688C13.375 5.96875 13.1875 6.625 12.6719 6.85938C12.2969 7 11.9219 6.85938 11.6406 6.57812C11.3594 6.20312 10.8906 5.78125 10.0469 5.78125C9.34375 5.78125 8.26562 6.15625 8.26562 7.1875C8.26562 8.125 9.10938 8.5 10.8906 9.10938C13.2812 9.90625 13.8906 11.125 13.8906 12.5312C13.8906 15.1562 11.4062 15.6719 10.8906 15.7656Z" fill="#E85A43"/>
</svg>
