<svg width="22" height="18" viewBox="0 0 22 18" fill="none" xmlns="http://www.w3.org/2000/svg">
<path d="M18.4531 6.98438C18.2656 7.3125 18.2188 7.6875 18.4062 8.01562C18.6406 8.57812 18.8281 9.1875 18.9219 9.79688C19.1562 11.4375 18.9219 13.0781 18.2188 14.5312C18.0312 14.8594 17.7031 15.0938 17.3281 15.0469H4.67188C4.29688 15.0938 3.96875 14.8594 3.78125 14.5312C2.46875 11.9062 2.75 8.71875 4.4375 6.32812C6.17188 3.9375 9.07812 2.67188 11.9844 3.04688C12.7344 3.14062 13.4375 3.32812 14.0938 3.60938C14.4219 3.79688 14.7969 3.75 15.125 3.5625C15.4062 3.32812 15.5938 3 15.5469 2.625C15.5 2.25 15.2656 1.92188 14.9375 1.78125C11 0.09375 6.35938 1.125 3.5 4.35938C0.640625 7.59375 0.171875 12.2812 2.32812 15.9844C2.70312 16.5938 3.35938 17.0156 4.0625 17.0156H17.9375C18.6406 17.0156 19.2969 16.6406 19.6719 15.9844C21.2188 13.2656 21.4062 9.98438 20.1875 7.125C20.0469 6.79688 19.7188 6.5625 19.3906 6.51562C19.0156 6.51562 18.6406 6.70312 18.4531 6.98438ZM9.59375 9.60938C8.79688 10.3594 8.79688 11.625 9.59375 12.4219C10.3906 13.2188 11.6562 13.2188 12.4062 12.4219L18.0781 3.9375L9.59375 9.60938Z" fill="#E85A43"/>
</svg>
