<svg width="21" height="22" viewBox="0 0 21 22" fill="none" xmlns="http://www.w3.org/2000/svg">
<path d="M17.4531 7.01562L18.25 5.23438L19.9844 4.4375C20.4062 4.29688 20.4062 3.73438 19.9844 3.54688L18.25 2.75L17.4531 1.01562C17.2656 0.59375 16.75 0.59375 16.5625 1.01562L15.7656 2.75L13.9844 3.54688C13.6094 3.73438 13.6094 4.25 13.9844 4.4375L15.7656 5.23438L16.5625 7.01562C16.7031 7.39062 17.2656 7.39062 17.4531 7.01562ZM9.48438 8.51562L7.89062 5C7.5625 4.20312 6.4375 4.20312 6.10938 5L4.51562 8.51562L1 10.1094C0.203125 10.4375 0.203125 11.5625 1 11.8906L4.51562 13.4844L6.10938 17C6.4375 17.7969 7.5625 17.7969 7.89062 17L9.48438 13.4844L13 11.8906C13.7969 11.5625 13.7969 10.4375 13 10.1094L9.48438 8.51562ZM16.5625 14.9844L15.7656 16.7656L13.9844 17.5625C13.6094 17.7031 13.6094 18.2656 13.9844 18.4531L15.7656 19.25L16.5625 20.9844C16.7031 21.4062 17.2656 21.4062 17.4531 20.9844L18.25 19.25L19.9844 18.4531C20.4062 18.2656 20.4062 17.75 19.9844 17.5625L18.25 16.7656L17.4531 14.9844C17.2656 14.6094 16.7031 14.6094 16.5625 14.9844Z" fill="#E85A43"/>
</svg>
