<svg xmlns="http://www.w3.org/2000/svg" width="121" height="120" fill="none"><g fill="#00A3FF" clip-path="url(#a)"><path d="m33.85 53.582-.689 1.04c-7.914 12.487-6.193 28.79 4.474 39.195 5.849 6.243 14.107 9.365 22.365 9.365l-26.15-49.6Z"/><path d="M60 68.496 33.85 53.235 60 103.182V68.496ZM86.15 53.582l.689 1.04c7.914 12.487 6.193 28.79-4.473 39.195-6.194 6.243-14.108 9.365-22.366 9.365l26.15-49.6Z" opacity=".6"/><path d="m60 68.496 26.15-15.261L60 103.182V68.496ZM60 34.852v26.014l22.71-12.834L60 34.852Z" opacity=".2"/><path d="m60 34.852-22.71 13.18L60 60.866V34.852Z" opacity=".6"/><path d="M60 13 37.29 48.032 60 34.852V13Z"/><path d="m60 34.852 22.71 13.18L60 13v21.852Z" opacity=".6"/></g><defs><clipPath id="a"><path fill="#fff" d="M28 13h64v90.182H28z"/></clipPath></defs></svg>