<svg xmlns="http://www.w3.org/2000/svg" width="120" height="120" fill="none"><path fill="#50AF95" fill-rule="evenodd" d="M32.528 22.642 16.721 55.845a.644.644 0 0 0 .138.75l42.69 40.908a.651.651 0 0 0 .902 0l42.69-40.905a.647.647 0 0 0 .138-.75L87.473 22.644a.64.64 0 0 0-.583-.373H33.115a.638.638 0 0 0-.587.37Z" clip-rule="evenodd"/><path fill="#fff" fill-rule="evenodd" d="M65.486 59.254c-.307.023-1.89.118-5.423.118-2.809 0-4.804-.084-5.503-.118-10.858-.477-18.961-2.367-18.961-4.63s8.104-4.15 18.96-4.636v7.384c.71.051 2.744.171 5.553.171 3.371 0 5.06-.14 5.363-.169v-7.38c10.835.482 18.92 2.372 18.92 4.63s-8.083 4.148-18.92 4.628l.01.002Zm0-10.024v-6.607h15.12V32.547H39.44v10.076h15.117v6.604c-12.287.565-21.528 2.999-21.528 5.915 0 2.917 9.24 5.348 21.528 5.915V82.23h10.926V61.05c12.26-.565 21.484-2.996 21.484-5.91s-9.217-5.346-21.484-5.913l.003.003Z" clip-rule="evenodd"/></svg>