<svg xmlns="http://www.w3.org/2000/svg" width="120" height="120" fill="none"><path fill="#2775CA" d="M60 103.344c24.02 0 43.344-19.324 43.344-43.344S84.02 16.656 60 16.656 16.656 35.98 16.656 60 35.98 103.344 60 103.344Z"/><path fill="#fff" d="M71.92 66.863c0-6.321-3.793-8.488-11.378-9.391-5.418-.723-6.501-2.167-6.501-4.696s1.806-4.154 5.418-4.154c3.25 0 5.056 1.084 5.96 3.793.18.542.722.903 1.264.903h2.889c.723 0 1.264-.542 1.264-1.264v-.18a9.023 9.023 0 0 0-8.127-7.405v-4.335c0-.722-.541-1.264-1.444-1.445h-2.71c-.722 0-1.264.542-1.444 1.445v4.154c-5.418.722-8.85 4.334-8.85 8.85 0 5.96 3.612 8.307 11.198 9.21 5.056.903 6.682 1.987 6.682 4.876 0 2.89-2.529 4.876-5.96 4.876-4.696 0-6.321-1.986-6.863-4.695-.18-.723-.722-1.084-1.264-1.084h-3.07c-.723 0-1.264.542-1.264 1.264v.181c.722 4.515 3.612 7.765 9.571 8.669v4.334c0 .722.542 1.264 1.445 1.445h2.709c.723 0 1.264-.542 1.445-1.445v-4.334c5.418-.904 9.03-4.696 9.03-9.572Z"/><path fill="#fff" d="M50.789 85.826C36.702 80.769 29.478 65.057 34.716 51.15c2.709-7.586 8.668-13.365 16.073-16.074.722-.36 1.084-.903 1.084-1.806v-2.528c0-.723-.362-1.264-1.084-1.445-.18 0-.542 0-.723.18-17.157 5.419-26.548 23.66-21.13 40.816 3.251 10.114 11.017 17.88 21.13 21.13.723.361 1.445 0 1.626-.722.18-.18.18-.361.18-.722V87.45c0-.542-.541-1.264-1.083-1.625Zm19.144-56.347c-.723-.362-1.446 0-1.626.722-.18.18-.18.361-.18.723v2.528c0 .722.541 1.445 1.083 1.806 14.087 5.056 21.311 20.769 16.073 34.675-2.709 7.585-8.668 13.364-16.073 16.073-.722.362-1.084.903-1.084 1.807v2.528c0 .722.361 1.264 1.084 1.445.18 0 .542 0 .723-.18 17.156-5.419 26.548-23.66 21.13-40.817-3.251-10.294-11.198-18.06-21.13-21.31Z"/></svg>