<svg xmlns="http://www.w3.org/2000/svg" width="120" height="120" fill="none"><path fill="#000" d="M41.233 96.912c21.479 0 21.479-.32 25.12-1.4 4.76-1.414-13.437-14.01-25.12-14.01-11.684 0-21.155 3.45-21.155 7.705 0 4.256 9.472 7.705 21.155 7.705Z"/><path fill="#000" d="m90.007 31.39.988 1.065-.864 1.167c-28.013 37.876-44.15 55.025-50.997 52.725-4.17-1.401-8.353-5.614-12.535-11.732a86.395 86.395 0 0 1-4.106-6.669 72.615 72.615 0 0 1-1.911-3.64c-.47-.983-.667-1.59-.824-2.385l-.019-.095a8.16 8.16 0 0 0-.137-.63 38.224 38.224 0 0 1-1.274-9.814c0-21.083 17.091-38.175 38.174-38.175 6.606 0 12.97 1.681 18.612 4.837l.145.09c4.619 3.216 9.531 7.635 14.748 13.256ZM73.329 21.059a34.505 34.505 0 0 0-16.826-4.35c-19.15 0-34.673 15.524-34.673 34.673 0 3.043.392 6.032 1.157 8.916a11.002 11.002 0 0 1 .207.945c.101.514.208.841.55 1.556a69.453 69.453 0 0 0 1.808 3.443 82.97 82.97 0 0 0 3.938 6.396c3.779 5.527 7.527 9.303 10.76 10.389 4.311 1.448 20.544-15.735 46.196-50.314-4.657-4.916-9.032-8.8-13.117-11.654Z"/><path fill="#EC1C79" d="M73.329 21.056a34.504 34.504 0 0 0-16.827-4.349c-19.149 0-34.672 15.523-34.672 34.672 0 3.043.392 6.033 1.157 8.917.076.285.11.447.19.86l.017.085c.101.513.208.84.549 1.556a69.453 69.453 0 0 0 1.809 3.442 82.99 82.99 0 0 0 3.938 6.397c3.779 5.527 7.526 9.303 10.76 10.389C44.56 84.472 60.792 67.29 86.445 32.71c-4.657-4.915-9.032-8.8-13.117-11.654Z"/><path fill="#000" d="M63.507 96.56c-21.083 0-38.174-17.09-38.174-38.174 0-21.083 17.091-38.174 38.174-38.174 21.084 0 38.175 17.091 38.175 38.174S84.591 96.561 63.507 96.561Zm0-3.502c19.15 0 34.673-15.523 34.673-34.672 0-19.149-15.524-34.672-34.673-34.672-19.148 0-34.672 15.523-34.672 34.672 0 19.15 15.523 34.672 34.672 34.672Z"/><path fill="#fff" d="M63.507 93.056c19.149 0 34.672-15.523 34.672-34.672 0-19.149-15.523-34.672-34.672-34.672-19.149 0-34.672 15.523-34.672 34.672 0 19.149 15.523 34.672 34.672 34.672Z"/><path fill="#000" fill-rule="evenodd" d="m37.57 65.487-4.589-13.826h4.021l2.393 7.942 2.647-7.982h3.276l2.647 7.982 2.393-7.943H54.3l-4.59 13.827h-3.314l-2.765-7.903-2.746 7.903h-3.314Zm18.24-.098V51.661h11.042v3.236h-7.276v2.078h6.59v3.001h-6.59v2.177h7.374v3.236H55.81Zm16.436 0V54.995h-4.119V51.66H80.17v3.334h-4.118v10.394h-3.805Zm9.59 0V51.661h3.805v5.138h4.884V51.66h3.804v13.73h-3.804v-5.218H85.64v5.217h-3.805Z" clip-rule="evenodd"/><path fill="#000" d="M20.602 47.534a1.961 1.961 0 1 1 1.754-3.508l5.604 2.802a1.961 1.961 0 1 1-1.754 3.508l-5.604-2.802ZM19.958 56.824a1.961 1.961 0 0 1 1.644-3.561l5.604 2.586a1.961 1.961 0 1 1-1.644 3.561l-5.604-2.586Z"/></svg>