<?xml version="1.0" encoding="UTF-8"?>
<!DOCTYPE svg PUBLIC "-//W3C//DTD SVG 1.1//EN" "http://www.w3.org/Graphics/SVG/1.1/DTD/svg11.dtd">
<svg xmlns="http://www.w3.org/2000/svg" version="1.1" width="1025px" height="200px" style="shape-rendering:geometricPrecision; text-rendering:geometricPrecision; image-rendering:optimizeQuality; fill-rule:evenodd; clip-rule:evenodd" xmlns:xlink="http://www.w3.org/1999/xlink">
<g><path style="opacity:1" fill="#071b2c" d="M 117.5,15.5 C 161.767,11.996 192.934,30.3293 211,70.5C 223.611,114.349 211.111,148.849 173.5,174C 133.175,193.199 97.3417,187.032 66,155.5C 44.9351,128.031 40.6018,98.0313 53,65.5C 66.2433,38.0801 87.7433,21.4134 117.5,15.5 Z"/></g>
<g><path style="opacity:1" fill="#75c5f6" d="M 185.5,48.5 C 201.967,74.4525 203.8,101.452 191,129.5C 172.395,159.881 145.228,172.714 109.5,168C 99.2171,165.079 89.5505,160.912 80.5,155.5C 58.9213,134.877 51.4213,109.877 58,80.5C 67.0101,52.1567 85.8434,33.99 114.5,26C 136.646,22.0777 156.98,26.411 175.5,39C 179.334,41.6682 182.667,44.8348 185.5,48.5 Z"/></g>
<g><path style="opacity:0.867" fill="#f1f2f1" d="M 248.5,58.5 C 252.007,57.9935 255.174,58.6602 258,60.5C 266.054,70.8877 273.721,81.5543 281,92.5C 288.733,80.7649 297.233,69.5983 306.5,59C 313.911,57.0746 316.411,59.5746 314,66.5C 305.206,77.9288 297.039,89.7621 289.5,102C 297.116,114.714 305.616,126.88 315,138.5C 315.812,145.001 312.979,147.168 306.5,145C 305,143.5 303.5,142 302,140.5C 295.245,130.656 288.245,120.99 281,111.5C 273.583,122.591 265.75,133.425 257.5,144C 253.879,146.09 250.379,145.923 247,143.5C 246.365,141.365 246.699,139.365 248,137.5C 256.623,125.755 265.123,113.922 273.5,102C 264.79,89.4123 255.956,76.9123 247,64.5C 246.252,62.1599 246.752,60.1599 248.5,58.5 Z"/></g>
<g><path style="opacity:0.865" fill="#f1f2f1" d="M 341.5,58.5 C 352.172,58.3335 362.839,58.5002 373.5,59C 379.699,64.8644 385.532,71.0311 391,77.5C 390.54,82.6162 387.706,84.7828 382.5,84C 378.167,79.6667 373.833,75.3333 369.5,71C 361.167,70.3333 352.833,70.3333 344.5,71C 341.333,74.1667 338.167,77.3333 335,80.5C 333.04,87.2273 335.206,91.7273 341.5,94C 352.109,95.2366 362.775,95.9033 373.5,96C 379.575,99.0704 385.408,102.57 391,106.5C 391.667,113.167 391.667,119.833 391,126.5C 384.779,132.721 378.613,138.887 372.5,145C 361.427,145.931 350.427,145.597 339.5,144C 333.676,137.673 328.009,131.173 322.5,124.5C 324.465,120.655 327.465,118.821 331.5,119C 336.167,123.667 340.833,128.333 345.5,133C 353.5,133.667 361.5,133.667 369.5,133C 372.297,129.201 375.464,125.701 379,122.5C 379.667,119.167 379.667,115.833 379,112.5C 375.784,110.807 372.617,108.973 369.5,107C 359.5,106.667 349.5,106.333 339.5,106C 334.351,103.169 329.185,100.336 324,97.5C 322,90.1667 322,82.8333 324,75.5C 329.729,69.603 335.562,63.9363 341.5,58.5 Z"/></g>
<g><path style="opacity:0.873" fill="#f1f2f1" d="M 406.5,58.5 C 409.685,58.0196 412.519,58.6863 415,60.5C 415.5,72.1619 415.667,83.8286 415.5,95.5C 430.833,95.5 446.167,95.5 461.5,95.5C 461.333,83.8286 461.5,72.1619 462,60.5C 465.619,57.6572 468.952,57.9905 472,61.5C 472.667,88.5 472.667,115.5 472,142.5C 468.867,145.867 465.534,146.201 462,143.5C 461.5,131.171 461.333,118.838 461.5,106.5C 446.167,106.5 430.833,106.5 415.5,106.5C 415.667,118.505 415.5,130.505 415,142.5C 412.029,146.092 408.696,146.425 405,143.5C 404.333,115.833 404.333,88.1667 405,60.5C 405.717,59.9558 406.217,59.2891 406.5,58.5 Z"/></g>
<g><path style="opacity:0.867" fill="#f1f2f1" d="M 513.5,58.5 C 517.888,57.9433 521.055,59.6099 523,63.5C 531.354,87.5601 540.02,111.56 549,135.5C 552.118,144.198 549.285,147.031 540.5,144C 539.299,143.097 538.465,141.931 538,140.5C 535.285,133.268 532.785,125.935 530.5,118.5C 520.833,118.5 511.167,118.5 501.5,118.5C 499.306,126.565 496.806,134.565 494,142.5C 490.603,145.981 486.936,146.314 483,143.5C 482.333,141.5 482.333,139.5 483,137.5C 492.528,113.094 501.528,88.4273 510,63.5C 511.176,61.8043 512.343,60.1376 513.5,58.5 Z M 515.5,81.5 C 516.458,81.9528 517.292,82.6195 518,83.5C 520.238,91.3772 522.738,99.0438 525.5,106.5C 519.132,106.83 512.798,106.496 506.5,105.5C 510.1,97.801 513.1,89.801 515.5,81.5 Z"/></g>
<g><path style="opacity:0.873" fill="#f1f2f1" d="M 561.5,58.5 C 577.503,58.3334 593.503,58.5001 609.5,59C 615.699,64.8644 621.532,71.0311 627,77.5C 627.667,83.8333 627.667,90.1667 627,96.5C 623.062,100.023 618.896,103.19 614.5,106C 618.667,117.167 622.833,128.333 627,139.5C 627.835,143.706 626.002,145.706 621.5,145.5C 619.626,145.61 618.126,144.944 617,143.5C 612.091,132.026 607.257,120.526 602.5,109C 591.839,108.5 581.172,108.333 570.5,108.5C 570.667,120.171 570.5,131.838 570,143.5C 566.667,146.167 563.333,146.167 560,143.5C 559.333,115.833 559.333,88.1667 560,60.5C 560.717,59.9558 561.217,59.2891 561.5,58.5 Z M 570.5,70.5 C 582.171,70.3335 593.838,70.5001 605.5,71C 609,74.5 612.5,78 616,81.5C 617.023,85.3169 616.523,88.8169 614.5,92C 611.079,93.4748 607.746,95.1414 604.5,97C 593.172,97.4999 581.838,97.6665 570.5,97.5C 570.5,88.5 570.5,79.5 570.5,70.5 Z"/></g>
<g><path style="opacity:0.858" fill="#f1f2f1" d="M 642.5,58.5 C 663.503,58.3334 684.503,58.5 705.5,59C 706.416,59.3742 707.25,59.8742 708,60.5C 709.458,64.7806 708.292,67.9473 704.5,70C 687.17,70.4999 669.837,70.6666 652.5,70.5C 652.5,78.8333 652.5,87.1667 652.5,95.5C 662.506,95.3335 672.506,95.5002 682.5,96C 686.132,99.4733 686.132,102.807 682.5,106C 672.506,106.5 662.506,106.666 652.5,106.5C 652.5,115.5 652.5,124.5 652.5,133.5C 669.837,133.333 687.17,133.5 704.5,134C 708.213,135.691 709.379,138.525 708,142.5C 707.097,143.701 705.931,144.535 704.5,145C 684.167,145.667 663.833,145.667 643.5,145C 642.584,144.626 641.75,144.126 641,143.5C 640.333,115.833 640.333,88.1667 641,60.5C 641.717,59.9558 642.217,59.2891 642.5,58.5 Z"/></g>
<g><path style="opacity:0.873" fill="#f1f2f1" d="M 754.5,58.5 C 770.503,58.3334 786.503,58.5001 802.5,59C 809.407,65.2362 815.573,72.0695 821,79.5C 821.851,85.2531 821.517,90.9198 820,96.5C 817.963,98.4357 815.797,100.102 813.5,101.5C 815.576,103.288 817.743,104.954 820,106.5C 822.319,114.011 821.986,121.345 819,128.5C 813.833,133.667 808.667,138.833 803.5,144C 795.265,145.138 786.931,145.638 778.5,145.5C 770.833,145.333 763.167,145.167 755.5,145C 754.584,144.626 753.75,144.126 753,143.5C 752.333,115.833 752.333,88.1667 753,60.5C 753.717,59.9558 754.217,59.2891 754.5,58.5 Z M 764.5,70.5 C 775.838,70.3335 787.172,70.5001 798.5,71C 802,74.5 805.5,78 809,81.5C 810.147,85.5984 809.314,89.0984 806.5,92C 803.595,93.2862 800.595,94.2862 797.5,95C 786.505,95.4998 775.505,95.6665 764.5,95.5C 764.5,87.1667 764.5,78.8333 764.5,70.5 Z M 764.5,106.5 C 775.838,106.333 787.172,106.5 798.5,107C 801.596,109.215 804.929,110.881 808.5,112C 809.622,115.409 809.789,118.909 809,122.5C 805.5,126 802,129.5 798.5,133C 787.172,133.5 775.838,133.667 764.5,133.5C 764.5,124.5 764.5,115.5 764.5,106.5 Z"/></g>
<g><path style="opacity:0.864" fill="#f1f2f1" d="M 850.5,58.5 C 861.172,58.3335 871.839,58.5002 882.5,59C 888.333,64.8333 894.167,70.6667 900,76.5C 900.667,93.1667 900.667,109.833 900,126.5C 894.5,133.333 888.333,139.5 881.5,145C 871.5,145.667 861.5,145.667 851.5,145C 845.365,139.866 839.531,134.366 834,128.5C 832.376,111.567 832.043,94.5666 833,77.5C 838.671,70.9964 844.505,64.663 850.5,58.5 Z M 854.5,70.5 C 862.507,70.3336 870.507,70.5003 878.5,71C 881.667,74.1667 884.833,77.3333 888,80.5C 888.667,94.8333 888.667,109.167 888,123.5C 884.833,126.667 881.667,129.833 878.5,133C 870.5,133.667 862.5,133.667 854.5,133C 851.333,129.833 848.167,126.667 845,123.5C 844.333,109.167 844.333,94.8333 845,80.5C 848.371,77.2975 851.538,73.9641 854.5,70.5 Z"/></g>
<g><path style="opacity:0.867" fill="#f1f2f1" d="M 912.5,58.5 C 933.169,58.3334 953.836,58.5 974.5,59C 978.393,62.5877 978.393,66.2544 974.5,70C 966.173,70.4997 957.84,70.6664 949.5,70.5C 949.667,94.5023 949.5,118.502 949,142.5C 945.867,145.867 942.534,146.201 939,143.5C 938.5,119.169 938.333,94.8356 938.5,70.5C 929.827,70.6664 921.16,70.4998 912.5,70C 908.542,66.0923 908.542,62.2589 912.5,58.5 Z"/></g>
<g><path style="opacity:1" fill="#081d30" d="M 90.5,72.5 C 116.835,72.3334 143.169,72.5 169.5,73C 194.427,81.3719 200.594,97.2052 188,120.5C 182.872,128.482 175.705,133.649 166.5,136C 141.406,140.997 116.406,140.663 91.5,135C 74.9816,126.134 67.1483,112.301 68,93.5C 71.9169,82.4905 79.4169,75.4905 90.5,72.5 Z"/></g>
<g><path style="opacity:1" fill="#123d53" d="M 104.5,93.5 C 94.1071,91.2174 87.4404,95.2174 84.5,105.5C 85.671,111.834 88.5044,112.834 93,108.5C 93.1952,104.812 95.0285,102.478 98.5,101.5C 95.6786,109.786 93.012,118.119 90.5,126.5C 87.8129,126.659 85.4796,125.825 83.5,124C 72.4228,112.844 70.2561,100.344 77,86.5C 79.894,83.6386 83.0607,81.1386 86.5,79C 94.7697,77.4635 103.103,77.1301 111.5,78C 112.554,79.3876 112.72,80.8876 112,82.5C 108.862,85.7916 106.362,89.4582 104.5,93.5 Z"/></g>
<g><path style="opacity:1" fill="#31f7db" d="M 104.5,93.5 C 112.9,97.1097 115.234,102.943 111.5,111C 106.798,111.633 104.631,109.466 105,104.5C 103.491,102.081 101.325,101.081 98.5,101.5C 95.0285,102.478 93.1952,104.812 93,108.5C 88.5044,112.834 85.671,111.834 84.5,105.5C 87.4404,95.2174 94.1071,91.2174 104.5,93.5 Z"/></g>
<g><path style="opacity:1" fill="#32f9dd" d="M 156.5,93.5 C 170.212,91.3946 176.712,97.0613 176,110.5C 170.596,112.448 167.929,110.448 168,104.5C 165.029,100.908 161.696,100.575 158,103.5C 157.203,106.22 156.037,108.72 154.5,111C 152.741,111.798 151.074,111.631 149.5,110.5C 147.685,103.13 150.018,97.4634 156.5,93.5 Z"/></g>
<g><path style="opacity:0.796" fill="#f1f2f1" d="M 723.5,128.5 C 732.827,128.019 735.994,132.352 733,141.5C 729.822,146.371 726.155,146.704 722,142.5C 720.966,137.543 721.466,132.876 723.5,128.5 Z"/></g>
<g><path style="opacity:1" fill="#0daae9" d="M 185.5,48.5 C 209.488,75.8878 212.988,105.888 196,138.5C 175.065,169.375 146.232,180.875 109.5,173C 98.1723,169.68 88.5056,163.847 80.5,155.5C 89.5505,160.912 99.2171,165.079 109.5,168C 145.228,172.714 172.395,159.881 191,129.5C 203.8,101.452 201.967,74.4525 185.5,48.5 Z"/></g>
<g><path style="opacity:1" fill="#5c90a9" d="M 137.5,147.5 C 141.079,147.92 144.746,148.086 148.5,148C 147.809,149.067 147.309,150.234 147,151.5C 146.193,147.551 145.693,147.551 145.5,151.5C 142.033,152.441 138.699,152.275 135.5,151C 136.973,150.29 137.64,149.124 137.5,147.5 Z"/></g>
<g><path style="opacity:1" fill="#5989a4" d="M 113.5,147.5 C 117.151,147.746 120.651,147.746 124,147.5C 124.626,149.991 125.459,149.991 126.5,147.5C 127.192,148.025 127.692,148.692 128,149.5C 130.179,147.363 132.679,147.029 135.5,148.5C 135.135,149.902 134.301,150.902 133,151.5C 126.357,150.524 119.857,150.524 113.5,151.5C 113.5,150.167 113.5,148.833 113.5,147.5 Z"/></g>
</svg>
